<svg width="174" height="94" viewBox="0 0 174 94" fill="none" xmlns="http://www.w3.org/2000/svg">
<path d="M2.5201 57.0509C2.5201 59.9101 2.35221 65.1861 2.18177 69.2028C2.0493 72.3249 1.92484 75.8703 2.05331 77.3113C2.16057 78.5146 2.43361 79.686 2.73124 80.7468C3.06562 81.9386 3.19677 83.1609 3.4944 84.5193C3.78862 85.8622 4.21431 87.2311 4.63786 88.3364C5.17446 89.7367 6.83956 90.2888 7.90034 91.0087C8.93434 91.7104 10.6502 91.3928 11.9285 90.7594C12.1854 90.6321 12.436 90.6297 12.6497 90.4618C13.6855 89.6479 14.2167 88.3453 14.5601 87.1153C14.9181 85.8333 15.743 84.1937 16.3396 82.6649C17.0169 80.929 17.6102 79.9506 17.9943 78.8898C18.4727 77.5689 18.292 75.2953 18.7142 73.8021C19.0525 72.606 19.3909 71.388 20.3652 68.9332C21.5122 66.0433 21.8534 64.5196 22.2756 63.4143C22.6873 62.3368 23.2932 60.9582 23.4216 59.6418C23.5348 58.4818 23.9698 57.1424 24.3959 55.784C24.4812 55.4431 24.5651 55.1074 24.6083 54.7245C24.6516 54.3417 24.6516 53.9219 24.6516 53.4895" stroke="#5A3B2E" stroke-width="4" stroke-linecap="round"/>
<path d="M55.2514 55.5621C55.2514 57.7369 54.7442 59.5198 54.4512 61.3844C54.3701 61.9007 54.2908 63.616 54.2274 66.1751C54.1397 69.714 54.0333 73.0416 54.2581 73.8745C54.6436 75.3027 55.0554 77.2645 55.4742 78.2616C55.8825 79.2337 55.9546 80.4038 56.53 81.4951C57.0034 82.3929 57.1073 83.4778 57.5233 84.3779C57.8902 85.1719 58.579 85.914 59.1237 86.8112C59.6097 87.6119 60.5002 88.1542 61.3004 88.67C61.974 89.1042 62.2947 89.8218 62.5819 90.2377C62.8189 90.5809 63.8259 90.5288 65.0094 90.4971C66.9162 90.446 68.5695 88.2272 69.3697 87.2665C70.0413 86.4603 70.9326 85.0302 71.7405 83.3616C72.2137 82.3844 72.4773 81.1839 72.606 79.9033C72.7696 78.2765 73.0537 77.276 73.4379 75.3586C73.6918 74.0921 73.949 73.0493 74.2391 72.0887C74.3871 71.5984 74.3352 70.9993 74.4312 68.7755C74.5135 66.8701 74.4639 63.3816 74.4956 61.4267C74.5563 57.684 74.7828 54.9895 75.0393 54.1884C75.1106 53.9657 75.1671 53.71 75.3265 53.6427C75.486 53.5755 75.7396 53.7023 75.997 53.8627C76.2545 54.0232 76.5081 54.2134 77.1536 54.4093" stroke="#5A3B2E" stroke-width="4" stroke-linecap="round"/>
<path d="M94.4449 55.9463C94.1893 57.9291 94.0606 60.2192 93.9012 62.0242C93.6809 64.5169 93.5496 65.9292 93.3248 67.2452C93.1564 68.2308 93.1 70.0214 92.7811 71.6958C92.4796 73.2783 92.0779 74.9629 91.7561 76.1781C91.3427 77.7391 91.3094 78.8054 91.2104 79.8938C91.1305 80.773 92.0087 81.4951 92.3939 82.2329C92.7824 82.9768 93.3536 83.6085 94.0894 84.5057C94.9364 85.5384 95.7859 86.7478 96.5554 87.2291C97.7075 87.9497 99.8205 87.328 100.718 87.0082C101.615 86.6882 102.126 85.6642 102.736 84.9601C103.412 84.1798 103.982 83.1051 105.008 81.6642C105.889 80.4269 106.676 78.8784 107.251 78.0119C107.808 77.1734 108.147 75.935 108.628 74.7467C109.064 73.6719 109.173 72.35 109.684 70.6823C110.707 67.3439 111.544 62.9973 111.895 61.8744C112.332 60.4724 112.439 59.0242 112.791 57.9358C113.204 57.4872 113.719 56.5304 114.135 55.2826C114.297 54.7955 114.361 54.6053 114.618 54.2172" stroke="#5A3B2E" stroke-width="4" stroke-linecap="round"/>
<path d="M61.0541 10.4486C62.6195 10.2536 65.3782 9.66292 67.397 8.77832C69.104 8.03032 71.3858 8.18612 72.9114 8.03697C74.7586 7.85636 76.3065 7.49498 77.6873 7.24983C79.3441 6.95569 81.1268 6.90426 82.9536 6.41396C84.6319 5.96353 86.0534 5.82324 87.5819 5.67409C89.0439 5.53142 90.7792 5.1321 92.4036 4.88695C95.2841 4.45227 96.4914 4.54138 97.7231 4.00235C99.0707 3.41255 100.331 3.46036 102.985 3.31121C104.872 3.20514 106.829 2.86964 108.747 2.72049C109.499 2.66203 110.081 2.37639 112.668 2.22871C123.945 1.58509 125.141 2.47386 126.373 2.76775C127.886 3.12879 129.471 3.25952 130.755 3.70256C131.399 3.92499 133.497 4.24602 136.449 4.19729C137.849 4.17417 142.042 3.95066 148.095 3.9994C151.252 4.02481 152.61 4.73632 153.793 5.08189C154.937 5.41617 156.349 5.6224 157.535 6.11417C158.675 6.58683 159.108 8.18022 159.752 9.26271C160.464 10.4612 161.471 11.6241 162.408 12.8558C163.468 14.247 164.525 15.1684 165.019 16.3513C165.549 17.6167 166.297 19.203 167.282 21.2218C167.922 22.5332 168.27 23.7339 168.661 24.9655C169.156 26.5222 169.646 27.5735 169.992 28.7565C170.326 29.9007 170.337 31.3128 170.828 33.6742C171.214 35.5346 171.519 41.2133 171.274 44.9008C171.116 47.2646 170.928 48.8395 170.683 50.0711C170.402 51.4806 170.337 52.6791 170.043 54.2047C169.694 56.0192 169.552 57.7948 168.961 59.4222C168.101 61.7922 168.37 63.507 168.221 64.7904C168.079 66.0141 167.679 67.3467 167.385 68.9239C167.087 70.5222 166.793 72.2674 166.058 73.7486C165.304 75.2663 165.612 77.7729 165.121 79.8035C164.828 81.0175 164.725 82.0202 164.579 82.7084C164.297 84.0378 163.054 84.8734 162.317 86.105C161.439 87.5721 160.596 88.5181 159.12 89.0616C158.723 89.2075 158.334 89.4042 157.987 89.4559C156.601 89.6623 155.475 87.8388 154.883 86.7046C154.254 85.4999 153.307 84.5898 152.667 83.4069C152.049 82.2623 151.535 81.0455 151.189 79.6174C150.749 77.7995 149.568 75.0438 149.073 73.3661C148.592 71.7348 148.581 70.1172 148.236 68.5917C147.853 66.9018 147.89 64.7121 147.645 62.8809C147.363 60.7768 146.909 59.1889 146.66 57.2705C146.482 55.9048 146.118 54.3686 145.873 52.7397C145.688 51.5116 145.43 50.6205 144.99 50.08C143.237 47.9278 139.135 49.631 138.049 50.5156C136.912 51.4406 135.101 51.4032 133.717 51.8462C132.228 52.3229 130.57 52.9804 129.287 53.2743C127.82 53.6102 126.039 53.7661 124.611 53.9152C122.978 54.0858 121.311 54.2593 117.017 54.407C113.019 54.5445 105.317 54.4572 101.204 54.4085C97.091 54.3597 96.7986 54.2623 93.6752 54.2121C90.5517 54.1618 84.6061 54.1618 81.3483 54.1131C78.0905 54.0644 77.7006 53.9669 73.065 53.9167C68.4293 53.8665 59.5596 53.8665 54.7955 53.8177C49.6396 53.765 46.0233 53.5711 41.0036 53.5224C38.2785 53.4959 36.5511 52.4901 34.2842 52.0471C31.4071 51.4848 30.0473 51.2082 28.8643 50.8656C28.5675 50.7179 28.2751 50.523 27.9295 50.4226C27.584 50.3222 27.1941 50.3222 26.2017 50.0268" stroke="#5A3B2E" stroke-width="4" stroke-linecap="round"/>
</svg>
