<svg width="115" height="105" viewBox="0 0 115 105" fill="none" xmlns="http://www.w3.org/2000/svg">
<path d="M25.3068 5.59295C24.215 7.14618 23.2765 9.55346 22.9871 10.1525C22.6309 10.8901 22.6477 11.7934 22.1808 12.7585C21.5119 14.141 20.7738 16.0167 20.1731 17.9946C19.8622 19.0186 19.366 19.7207 19.025 20.7608C18.6362 21.9471 18.3743 23.2088 17.9825 24.0738C17.6284 24.8554 17.3826 25.7146 17.1222 26.5241C16.8495 27.3717 16.3409 28.1141 15.7676 29.805C15.3913 30.915 14.6735 32.2779 13.9688 33.4323C13.4645 34.2585 13.6286 35.4126 13.4198 36.222C12.7912 38.6585 13.3658 43.1303 13.5746 43.7567C13.8462 44.5714 13.8882 46.5621 13.7326 47.693C13.6168 48.5346 13.1593 49.2306 12.8465 49.9087C12.4689 50.7271 12.274 51.5237 11.5967 52.3331C11.0987 52.9283 10.763 53.7135 9.77287 54.7827C9.15379 55.4511 8.67637 56.113 7.97327 57.233C7.71775 57.64 7.32022 57.8868 7.05979 58.277C6.94213 58.4534 6.90259 58.6157 7.05666 58.8245C7.46955 59.3841 8.46052 59.6606 10.0427 59.817C14.5934 60.2669 15.5525 59.7138 16.8782 59.3509C20.0851 58.473 20.8708 58.6188 21.6802 58.2035C22.3063 57.8823 24.093 57.527 28.4719 55.3943C30.7168 54.3009 33.4343 53.7198 34.6872 53.0425C35.7801 52.4517 37.082 52.0524 38.3623 51.3227C40.3969 50.1631 41.3084 49.4965 42.1703 48.8974C43.3547 48.0741 43.9175 47.6195 44.8294 46.7865C45.6074 46.0759 45.9009 45.3264 46.2911 44.6999C46.7737 43.9252 47.1522 42.93 47.5167 42.0674C47.599 41.8725 47.7247 41.7288 47.6746 41.5199C47.3993 40.3715 45.441 39.5952 44.3672 38.3149C43.0162 36.7042 41.1113 34.1237 39.9874 32.8395C39.1494 31.8819 38.7619 30.4134 38.2653 29.3733C37.7052 28.2002 37.3541 27.1318 36.2342 24.4523C35.5248 22.7553 35.2675 21.1409 34.7466 19.6518C34.1336 17.8992 33.755 16.4406 33.3913 15.4559C32.1708 12.1515 31.9295 11.2271 31.5909 10.5749C31.2087 9.83881 30.6281 8.88399 30.0017 7.73432C29.5426 6.89178 28.4915 6.22175 27.5264 5.36145C27.2902 5.17687 27.0837 5.07364 26.8999 4.94303C26.7161 4.81242 26.5613 4.65756 26.4017 4.49802" stroke="#5A3B2E" stroke-width="4" stroke-linecap="round"/>
<path d="M46.7361 44.6976C47.1522 44.1798 47.465 42.8268 47.7513 41.9634C48.1408 40.7884 49.0793 40.1145 49.8614 39.4341C50.8364 38.5858 51.582 38.1812 52.7004 37.4796C54.4557 36.3786 55.4393 36.2541 57.3131 35.8349C57.929 35.6971 58.4644 35.7301 60.4564 35.6519C62.1376 35.5859 65.1841 35.6253 66.8821 35.6511C69.5229 35.6913 71.4909 36.3511 72.9323 36.7453C73.8716 37.0021 75.4045 37.4992 76.4783 37.7886C77.5677 38.0821 79.1586 38.2312 80.1808 38.3102C80.9064 38.3663 82.0273 38.5973 83.1777 38.8827C84.2165 39.1405 85.0555 39.3262 85.8118 39.4052C86.6355 39.4912 87.5582 39.7954 88.5734 39.926C90.0151 40.1115 90.7898 40.4743 91.8066 40.6041C93.0298 40.7603 94.5908 40.9435 95.5622 41.0992C96.4377 41.2394 97.203 41.9853 98.1681 42.7134C98.9518 43.3047 99.6556 43.9124 100.229 44.2533C100.852 44.6242 101.426 45.3201 102.365 45.9458C103.813 46.911 104.295 47.51 104.947 48.2921C105.72 49.2181 106.432 50.3756 106.956 51.16C107.539 52.0331 107.843 52.9314 108.311 54.0522C108.771 55.1525 108.625 56.3727 108.652 60.9471C108.663 62.7478 108.209 64.4 108.079 65.4715C107.975 66.3306 107.689 67.2688 107.453 68.1306C107.072 69.5196 107.114 70.6067 106.958 71.3122C106.77 72.1662 106.491 73.1094 106.073 74.1254C105.361 75.8542 104.977 76.4474 104.379 77.2811C103.482 78.5334 102.894 79.5226 102.319 80.124C101.606 80.8695 101.329 81.9221 100.988 82.5485C100.614 83.236 100.078 83.9555 98.5435 85.4383C97.2063 86.7306 96.4803 87.137 95.7757 87.5805C94.9943 88.0722 94.2373 89.1173 93.3786 89.6139C92.3706 90.1969 90.9588 90.9943 88.7681 91.9586C87.8755 92.3516 87.0452 92.7681 85.2479 93.6792C84.2349 94.1928 82.8782 94.9048 81.7512 95.2458C80.7079 95.5615 79.5903 96.0529 78.4414 96.3407C77.1044 96.6756 74.7538 97.5107 72.5507 98.0347C71.2512 98.3438 69.5263 99.0249 68.5338 99.3127C67.6934 99.5564 66.4011 100.12 65.3273 100.512C64.2274 100.913 62.3373 101.371 60.6644 101.711C59.2064 102.006 57.6917 102.26 56.6757 102.285C56.1191 102.3 54.5195 102.416 52.2522 102.364C49.9146 102.311 47.002 102 45.6725 101.765C44.2704 101.518 43.0384 101.321 41.8136 101.14C40.7177 100.977 39.494 100.749 38.7353 100.41C37.9209 100.046 37.0413 99.9665 36.181 99.7061C35.4893 99.4966 34.3885 98.8215 32.2486 97.6233C31.3641 97.1281 30.4749 96.7349 29.4816 96.3431C28.5054 95.958 27.7626 95.5868 27.0297 95.2481C26.2149 94.8716 25.2067 94.0758 24.527 93.7621C23.7502 93.4037 23.1201 92.8244 22.1041 91.8359C21.3743 91.1257 20.877 90.6877 20.3037 89.9315C19.7342 89.1801 19.0532 88.6011 17.7518 87.4045C16.9803 86.6952 16.1876 86.2548 15.5588 85.6558C14.7962 84.9292 14.0478 84.2245 13.1625 83.4925C11.7676 82.3392 11.0258 81.2025 10.4228 80.2593C9.99432 79.5891 9.40529 79.1128 8.96341 78.4089C8.21162 77.2114 7.68468 76.3504 7.08638 74.6588C6.50949 73.0276 6.3301 71.3982 5.93827 69.8864C5.69494 68.9476 5.28835 67.2844 4.97317 65.9744C4.54623 64.1999 4.91921 61.7503 5.10143 60.9682C5.96095 60.2362 6.68986 59.6136 7.31632 59.2195C7.47352 59.1413 7.62837 59.038 8.10076 58.6188" stroke="#5A3B2E" stroke-width="4" stroke-linecap="round"/>
<path d="M99.4492 66.1269C101.367 66.6462 104.189 67.0654 105.826 67.1952C108.127 67.2218 109.926 67.1702 110.705 67.092C111.174 67.0654 111.794 67.0654 112.432 67.0654" stroke="#5A3B2E" stroke-width="4" stroke-linecap="round"/>
<path d="M97.7286 74.5735C98.4012 75.146 99.7589 75.4588 104.875 76.0313C108.728 76.2409 109.612 76.4505 110.393 76.4763C110.71 76.5022 110.865 76.5538 111.181 76.607" stroke="#5A3B2E" stroke-width="4" stroke-linecap="round"/>
<path d="M2.00043 70.0374C3.23926 70.663 7.40625 70.3533 9.16518 69.9083C10.3017 69.6208 11.226 69.152 13.1507 68.2167C14.0431 67.3798 14.5123 67.0138 14.8244 66.884C14.9816 66.8058 15.1365 66.7025 15.296 66.5962" stroke="#5A3B2E" stroke-width="4" stroke-linecap="round"/>
<path d="M4.03387 79.1096C4.44682 79.1096 6.10486 79.1096 8.37214 79.058C10.5707 79.008 13.2563 78.1743 14.0423 77.8333C14.8865 77.467 16.0218 77.0261 16.753 76.5569C17.22 76.194 17.5891 75.7748 17.7713 75.3587C17.8503 75.1491 17.9019 74.9426 17.9551 74.7299" stroke="#5A3B2E" stroke-width="4" stroke-linecap="round"/>
<path d="M36.2561 67.0654C35.7383 67.0654 34.695 66.7557 34.0686 66.2333C33.3459 65.6306 33.3373 64.4126 33.3358 62.6145C33.335 61.7919 33.7002 61.2795 33.9599 60.9932C34.517 60.379 35.9339 60.4958 37.1133 60.8329C37.9014 61.0582 38.0267 62.2133 38.2629 63.2535C38.3667 63.7103 38.2895 64.4438 38.2121 64.8677C38.1347 65.2916 37.9798 65.3949 37.771 65.4739C37.3175 65.6454 36.8317 65.5544 36.4414 65.3464C36.0907 65.1594 35.8916 64.8771 35.7618 64.5134C35.5934 64.0417 35.5256 63.5742 35.6296 63.1839C35.6789 62.9992 35.7337 62.8452 35.8377 62.8687C36.5142 63.8276 37.0382 65.3917 37.168 66.2278C37.1946 66.4882 37.1946 66.8496 37.1946 67.2218" stroke="#5A3B2E" stroke-width="4" stroke-linecap="round"/>
<path d="M76.4556 65.032C76.0928 65.0836 75.1574 65.1884 74.3987 65.2924C74.0096 65.3458 73.6417 65.1368 73.3812 64.9553C72.7306 64.502 72.7016 63.0079 72.883 61.9067C72.9568 61.4589 73.2741 61.0715 73.5079 60.6812C73.7356 60.3013 74.1078 60.1314 74.4973 60.1048C75.6949 60.023 76.2961 61.5876 76.6371 62.2141C76.721 62.3683 76.8185 62.5262 76.7685 62.7092C76.7184 62.8922 76.512 63.0987 76.3024 63.2308C76.0928 63.363 75.8863 63.4146 75.3607 63.6242" stroke="#5A3B2E" stroke-width="4" stroke-linecap="round"/>
<path d="M54.4006 72.0708C53.7797 72.0708 52.63 71.9676 52.2655 71.6563C51.8246 71.2797 51.8979 70.1484 51.9496 69.0543C51.9696 68.6285 52.1044 68.4763 52.3383 68.3191C53.7945 67.3402 55.8053 67.9507 56.4059 68.237C56.5727 68.3165 56.6406 68.5733 56.5647 68.8861C56.2197 70.3089 55.2891 70.4018 54.9763 70.6349C54.2011 71.2124 55.0263 72.7403 54.715 73.8923C54.477 74.7734 53.6217 75.4056 53.125 75.9789C52.581 76.6069 51.9011 77.0731 51.1448 77.6737C50.4925 78.1918 49.7112 78.4308 49.0073 78.8734C47.989 79.0048 45.197 79.1096 43.194 78.6169C42.9837 78.4339 42.8288 78.2274 42.6693 77.8583" stroke="#5A3B2E" stroke-width="4" stroke-linecap="round"/>
<path d="M55.3391 72.2272C55.3391 73.6788 55.4424 75.6653 55.9625 76.4216C56.4546 77.1372 57.1098 77.5423 57.7089 77.9091C58.5066 78.3976 59.2465 78.5872 60.2624 78.692C61.1575 78.7843 62.1652 78.85 63.0005 78.6412C63.8874 78.4324 64.5663 78.2243 64.9299 77.9905C65.1388 77.8599 65.3969 77.705 65.9756 77.389" stroke="#5A3B2E" stroke-width="4" stroke-linecap="round"/>
<path d="M74.2658 36.8767C74.2658 35.7911 74.6787 33.1821 75.2285 31.9276C75.6252 31.0225 76.246 30.5198 77.1556 29.4249C77.9069 28.5204 78.5892 27.6511 79.0092 26.7392C79.4722 25.7339 80.1565 24.992 80.6766 24.0018C81.0564 23.2787 81.5111 22.6457 81.7989 21.5781C82.0745 20.5557 82.2932 19.7269 82.5552 19.0215C82.8809 18.1445 83.0753 16.7581 83.7268 15.4778C84.2586 14.4326 84.483 13.417 84.7709 12.6607C85.1558 11.6493 85.8908 10.1353 86.5423 9.21952C86.9837 8.59894 87.5582 8.0456 87.925 7.52394C88.3009 6.9894 89.1224 6.89748 89.8263 6.42979C90.9806 5.66282 91.3655 4.97041 91.9129 4.47378C92.4439 3.99209 92.9265 3.04333 93.4255 2.2323C93.6263 1.90589 94.2326 1.99533 94.6753 2.07275C95.3705 2.19435 95.7452 2.93071 96.3184 3.94665C96.7504 4.71212 97.0497 5.27699 97.2585 5.95506C97.5417 6.87467 97.7786 7.93297 98.0406 8.8488C98.2292 9.50798 98.3542 10.2292 98.5099 11.1685C98.6342 11.9187 98.9267 12.6287 99.0315 13.5406C99.1307 14.4034 99.4492 15.0782 99.6048 15.7578C99.7714 16.4854 99.8652 17.4244 99.9442 18.6234C100.013 19.6718 100.178 21.1253 100.491 21.8839C100.86 22.78 100.804 24.2005 100.883 27.1412C100.927 28.7959 101.117 29.8347 101.196 32.3562C101.326 34.108 101.378 35.4658 101.456 37.019C101.483 38.2625 101.483 40.4305 101.483 42.6641" stroke="#5A3B2E" stroke-width="4" stroke-linecap="round"/>
<path d="M28.748 10.9112C28.2803 11.8465 27.6562 12.7851 26.6927 14.0082C25.6392 15.3456 24.7374 16.2263 23.5385 17.7615C23.138 18.2743 22.754 18.6257 22.5186 18.8095C21.4443 19.6483 25.1441 16.3889 26.2156 15.5803C26.5845 15.3018 27.0775 15.2924 27.3129 15.2127C27.6963 15.0827 26.7693 16.1746 26.2492 16.7464C25.6758 17.3767 23.9663 19.3937 21.595 21.9731C20.7065 22.9395 20.5141 23.262 21.2595 22.9828C22.0048 22.7036 23.7082 21.826 25.6955 20.4965C27.6828 19.1669 29.9024 17.4119 31.2523 16.4046C32.6022 15.3972 33.0151 15.1908 33.1246 15.2393C34.2431 15.7346 31.2022 17.2164 28.7965 19.3898C26.7694 21.2212 23.0356 24.4539 20.992 26.284C18.9484 28.1141 18.6903 28.4238 19.1251 28.1188C19.56 27.8137 20.6956 26.8846 22.1839 25.7866C23.6722 24.6885 25.4789 23.4497 26.6934 22.5534C29.515 20.4713 30.5171 19.7238 31.0646 19.7222C31.2767 19.7216 31.2507 20.1336 31.0958 20.4222C30.7566 21.0543 29.7444 21.9058 27.2065 24.1872C25.3142 25.8882 21.8812 28.3268 19.8173 29.9911C17.7533 31.6554 17.0823 32.378 16.8657 32.6471C16.649 32.9161 16.9071 32.7096 19.4145 31.287C21.9219 29.8644 26.6708 27.2319 29.2978 25.7983C31.9249 24.3647 32.2862 24.2099 31.1044 25.5754C29.9227 26.9409 27.1869 29.8315 25.2872 31.7336C23.3875 33.6356 22.4068 34.4615 21.5144 35.3257C20.6221 36.19 19.8478 37.0675 19.3973 37.6228C18.9468 38.178 18.8436 38.3845 19.797 37.6908C20.7503 36.9971 22.7634 35.3969 25.1684 33.8241C27.5733 32.2513 30.3091 30.7544 31.5893 30.1897C32.8696 29.6251 32.6115 30.038 32.0914 30.6379C30.8548 32.0642 29.2251 33.3259 26.4776 35.4501C24.4638 37.007 21.3557 39.7422 19.6562 41.2282C17.9567 42.7142 17.8018 42.9206 17.5156 43.2335C17.2293 43.5463 16.8164 43.9593 19.0813 43.0622C21.3463 42.1651 26.3016 39.9456 29.1899 38.5957C32.7882 36.9139 33.9051 36.2009 34.1702 36.2752C34.5019 36.3681 33.0933 37.3302 30.4991 39.3551C27.9049 41.3799 23.6206 44.6319 21.3361 46.3845C19.0516 48.1372 18.8968 48.2921 21.2947 47.2104C23.6926 46.1288 28.6479 43.806 31.5878 42.3771C35.3373 40.5547 36.2545 39.9018 36.4117 39.8228C37.4528 39.2996 33.8097 41.5661 30.3708 43.5581C27.375 45.2934 21.7186 48.2858 18.7169 49.9579C15.4691 51.7671 15.0895 52.1525 14.9057 52.3347C14.8474 52.3926 15.1865 52.4653 19.2166 51.0724C23.2468 49.6795 31.0411 46.8405 34.0498 46.1006C37.0585 45.3608 35.0454 46.8061 32.6405 48.2217C30.2355 49.6373 27.4998 50.9793 25.7807 51.7739C24.0617 52.5685 23.4423 52.775 22.8909 53.0104C22.3395 53.2458 21.875 53.5039 23.5197 52.8884C25.1645 52.2729 28.9326 50.776 31.8545 49.4887C36.8019 47.3089 38.4491 46.1569 37.7992 46.3642C37.4427 46.4779 37.0976 46.7779 35.8791 47.4529C34.6606 48.1278 32.5959 49.2118 30.758 50.0541C28.9201 50.8964 27.3715 51.4642 26.6512 51.7051C25.9309 51.946 26.0858 51.8428 26.785 51.1702C27.4841 50.4976 28.723 49.2587 30.9613 47.3559C33.1997 45.4531 36.4 42.9238 37.868 41.8015C39.336 40.6792 38.9746 41.0405 38.6853 41.4073C38.1396 42.0989 37.5638 42.9206 35.3637 44.7593C33.6096 46.2254 30.4279 48.6112 28.9091 49.8093C27.3903 51.0075 27.5968 50.9042 29.8195 49.5348C32.0422 48.1654 36.2749 45.5328 38.507 44.0993C40.739 42.6657 40.8423 42.5108 38.6759 43.5925C36.5095 44.6741 32.0703 46.9969 27.6155 48.9162C23.1607 50.8354 18.8248 52.2807 16.3847 53.1285C13.9446 53.9763 13.5316 54.1828 13.5254 53.9794C13.5191 53.7761 13.932 53.1567 17.1644 51.1084C20.3968 49.0601 26.4361 45.6017 30.2441 43.5103C34.0522 41.419 35.4458 40.7996 36.3445 40.3773C37.6189 39.7783 38.1832 39.2777 38.4186 38.9899C38.556 38.8219 37.6686 39.7407 33.945 41.8625C30.7268 43.6964 24.6467 46.7717 21.4323 48.5228C18.2179 50.2739 18.0114 50.532 17.9309 50.5359C17.8503 50.5398 17.9019 50.2817 21.103 47.542C24.3042 44.8024 30.6532 39.5889 33.769 36.9032C36.8849 34.2175 36.5752 34.2175 33.6025 35.3531C30.6297 36.4887 25.0033 38.7599 21.6662 40.188C18.329 41.6161 17.4515 42.1323 17.1026 42.2175C16.8009 42.2913 17.7924 40.9498 19.4794 39.4951C20.506 38.6099 22.0439 37.6274 24.854 36.0891C27.664 34.5507 31.7419 32.5376 32.7328 31.9393C33.7237 31.341 31.5041 32.2185 29.509 32.9028C27.5139 33.5872 25.8105 34.0517 23.9264 34.7298C19.9782 36.1508 17.7487 37.2411 17.4616 37.1386C17.2979 37.0802 17.4327 36.6232 17.6399 36.2564C17.8472 35.8896 18.2085 35.5283 19.9432 34.1808C21.6779 32.8332 24.775 30.5104 26.6285 29.0557C29.0532 27.1528 29.7366 26.2949 29.8687 26.0329C29.9023 25.9665 29.4331 26.2871 28.1114 27.0395C26.7896 27.7918 24.5184 29.0307 22.5225 30.2625C20.5266 31.4943 18.8749 32.6815 17.8175 33.5512C16.7601 34.4209 16.3471 34.937 16.1344 35.3062C15.9217 35.6753 15.9217 35.8818 16.0507 36.0914C16.3487 36.5754 17.7878 36.7202 20.1012 36.5396C21.3401 36.4428 22.6727 35.9976 25.3514 35.0372C28.03 34.0767 32.0046 32.5282 34.0005 31.9111C35.9964 31.2941 35.8932 31.6554 35.2206 32.4351C34.548 33.2149 33.3092 34.4021 30.6837 36.4332C28.0582 38.4643 24.0836 41.3033 21.4425 43.3594C18.8013 45.4155 17.6141 46.6027 16.7186 47.7305C15.8231 48.8583 15.2553 49.8907 14.9628 50.5773C14.6703 51.264 14.6703 51.5737 15.0317 51.6558C15.393 51.738 16.1156 51.5831 19.456 50.058C22.7963 48.5329 28.7324 45.6423 32.2033 43.8951C35.6742 42.1479 36.5001 41.6318 37.0546 41.2626C37.8835 40.7108 35.6038 42.4357 31.3328 45.8465C28.5952 48.0326 27.5514 49.4386 27.3668 49.8312C27.3328 49.9035 27.8533 49.5528 29.6662 48.0254C31.4791 46.4979 34.6794 43.7622 36.5087 42.1206C38.7704 40.0909 39.2265 39.3809 39.2288 39.456C39.2374 39.7318 38.6118 40.3053 36.7723 41.8116C34.9328 43.318 31.7325 45.6924 29.929 47.0704C28.1255 48.4485 27.8157 48.7582 27.4967 49.0773" stroke="#5A3B2E" stroke-width="2" stroke-linecap="round"/>
</svg>
