<svg width="43" height="83" viewBox="0 0 43 83" fill="none" xmlns="http://www.w3.org/2000/svg">
<path d="M2.00034 66.0739C2.19528 64.9959 2.59106 63.4216 3.57166 61.7484C4.34543 60.4281 4.94804 58.6958 6.03348 57.5129C7.04965 56.4055 8.197 55.246 8.84088 54.264C9.60546 53.0978 10.17 51.9026 11.4962 50.2294C12.3401 49.1646 12.5329 47.5726 13.1723 46.1431C13.9881 44.3195 14.1101 43.0418 14.404 41.8589C14.7495 40.468 15.3861 38.7118 15.6844 37.4285C16.0576 35.8229 16.3726 33.6907 16.5704 29.9071C16.6894 27.6321 17.2586 25.9109 17.6042 24.6305C18.0456 22.995 18.4401 21.7759 18.8344 20.3478C19.2735 18.7574 19.3262 16.7547 19.4753 15.3267C19.6279 13.8657 20.0173 12.1294 20.5563 10.6009C21.0043 9.33062 21.689 8.1893 22.3772 7.00639C23.0921 5.77753 23.9515 4.64499 25.1817 3.70722C26.1316 2.98306 27.1 2.37662 28.2829 2.22746C29.692 2.0498 32.2098 1.68548 33.846 2.56713C35.0443 3.21277 35.7659 4.33781 36.8484 5.76588C37.8029 7.02509 38.2292 8.17749 38.8199 9.65429C39.3744 11.0404 39.4106 12.3125 39.7562 14.0832C40.0977 15.8329 40.1018 21.9117 39.8566 25.7027C39.748 27.3818 39.511 29.9219 39.2659 32.2966C39.0022 34.851 38.7254 36.2367 38.0372 37.6647C37.4235 38.9382 36.7583 40.0764 36.2148 41.308C35.5824 42.7413 34.7912 43.916 34.3925 45.099C33.8309 46.765 32.4283 48.8367 31.8332 50.1201C31.2695 51.3355 30.8511 52.9718 29.8173 54.5003C28.9818 55.7356 27.9979 56.9119 27.1089 58.0948C26.2858 59.19 25.4401 60.2613 24.4994 61.834C23.6912 63.1853 22.9768 64.6917 22.1852 66.0193C21.5359 67.1084 21.1042 68.4309 20.7572 69.5164C20.3443 70.8078 18.8418 72.2706 17.9527 73.4535C17.1296 74.5487 16.4789 75.8149 15.296 76.7527C14.1131 77.7879 12.7396 78.7685 11.2111 80.0991C10.8641 80.3487 10.5717 80.4461 9.6797 80.5466" stroke="#5A3B2E" stroke-width="4" stroke-linecap="round"/>
</svg>
